<svg width="68" height="26" viewBox="0 0 68 26" fill="none" xmlns="http://www.w3.org/2000/svg">
<path d="M9.072 25C9.072 14.92 12.528 9.808 17.352 5.056V0.879999H0.9V4.624H13.536C9.756 8.368 4.608 13.732 4.608 25H9.072ZM28.4721 25.36C33.9441 25.36 37.3641 22.048 37.3641 17.08C37.3641 12.292 34.7001 9.196 30.1281 9.196C26.9241 9.196 24.9801 10.924 24.2241 13.084L24.8001 4.624H35.5641V0.879999H20.9121L20.1201 14.596L24.0801 14.992L24.1161 14.668C24.3321 13.12 25.9521 12.148 28.2561 12.148C30.7401 12.148 33.0081 13.516 33.0081 16.9C33.0081 19.708 31.4241 21.436 28.5081 21.436C25.4121 21.436 23.2881 19.636 22.4601 16.648L19.2201 19.78C20.4441 22.912 23.8641 25.36 28.4721 25.36ZM43.8098 6.208C45.5018 6.208 46.8338 4.984 46.8338 3.184C46.8338 1.42 45.5018 0.159998 43.8098 0.159998C42.1538 0.159998 40.8218 1.42 40.8218 3.184C40.8218 4.984 42.1538 6.208 43.8098 6.208ZM43.8098 4.66C43.0178 4.66 42.4778 4.084 42.4778 3.184C42.4778 2.284 43.0178 1.708 43.8098 1.708C44.6378 1.708 45.1778 2.284 45.1778 3.184C45.1778 4.084 44.6378 4.66 43.8098 4.66ZM54.9948 25V15.496H65.4708V11.896H54.9948V4.48H67.6668V0.879999H50.9268V25H54.9948Z" fill="white"/>
</svg>
